<svg width="782" height="782" viewBox="0 0 782 782" fill="none" xmlns="http://www.w3.org/2000/svg">
<g clip-path="url(#clip0_69_5577)">
<path d="M391 782C606.621 782 782 606.621 782 391C782 324.482 765.033 258.865 732.9 201.206L700.166 219.525C729.146 271.628 744.462 331.089 744.462 391.15C744.462 586.049 585.899 744.612 391 744.612C196.101 744.612 37.5385 586.049 37.5385 391.15C37.5385 196.251 196.101 37.5384 391 37.5384C450.911 37.5384 510.072 52.8541 562.025 81.6836L580.194 48.7999C522.685 16.8172 457.218 0 390.85 0C175.229 0 -0.150085 175.379 -0.150085 391C-0.150085 606.621 175.229 782 390.85 782H391Z" fill="#D9E97D"/>
<path d="M598.888 176.506C617.658 176.506 636.427 169.298 650.691 155.034C664.505 141.22 672.163 122.751 672.163 103.231C672.163 83.7107 664.505 65.2418 650.691 51.4277C622.162 22.8985 575.615 22.8985 546.935 51.4277C518.406 79.9568 518.406 126.504 546.935 155.184C561.2 169.448 579.969 176.656 598.738 176.656L598.888 176.506ZM598.888 67.4941C608.048 67.4941 617.207 70.9476 624.264 78.0048C631.322 85.0621 634.775 93.771 634.775 103.381C634.775 112.991 631.021 122 624.264 128.757C610.3 142.721 587.627 142.721 573.663 128.757C559.698 114.792 559.698 92.1193 573.663 78.155C580.57 71.2479 589.879 67.6442 599.039 67.6442L598.888 67.4941Z" fill="#379A0C"/>
<path d="M555.569 555.568V210.215H630.646V555.568H555.569Z" fill="#379A0C"/>
<path d="M328.423 263.48C348.032 263.48 365.19 266.796 379.896 273.428C394.602 279.772 407.002 288.567 417.095 299.814V272.131H512.254V553.283H417.095V525.601C407.002 536.847 394.602 545.642 379.896 551.986C365.19 558.618 348.032 561.934 328.423 561.934C309.103 561.934 291.225 558.041 274.788 550.256C258.64 542.47 244.654 531.8 232.832 518.247C221.009 504.694 211.781 488.835 205.149 470.668C198.517 452.501 195.2 433.181 195.2 412.707C195.2 391.945 198.517 372.625 205.149 354.746C211.781 336.58 221.009 320.72 232.832 307.167C244.654 293.614 258.64 282.944 274.788 275.159C291.225 267.373 309.103 263.48 328.423 263.48ZM353.944 482.779C364.325 482.779 373.264 480.905 380.761 477.156C388.259 473.119 394.314 467.928 398.928 461.584C403.83 454.952 407.29 447.455 409.309 439.092C411.616 430.73 412.769 422.079 412.769 413.14V410.544C412.481 401.894 411.183 393.531 408.876 385.457C406.569 377.383 402.965 370.318 398.063 364.262C393.449 357.918 387.393 352.872 379.896 349.123C372.687 345.375 364.036 343.5 353.944 343.5C343.562 343.5 334.623 345.519 327.126 349.556C319.917 353.305 313.861 358.495 308.959 365.127C304.057 371.471 300.452 378.825 298.146 387.187C295.839 395.55 294.685 404.2 294.685 413.14C294.685 422.079 295.839 430.73 298.146 439.092C300.452 447.455 304.057 454.952 308.959 461.584C313.861 467.928 319.917 473.119 327.126 477.156C334.623 480.905 343.562 482.779 353.944 482.779Z" fill="#379A0C"/>
</g>
<defs>
<clipPath id="clip0_69_5577">
<rect width="782" height="782" fill="white" transform="matrix(-1 0 0 1 782 0)"/>
</clipPath>
</defs>
</svg>
